<svg xmlns="http://www.w3.org/2000/svg" version="1.1" xmlns:xlink="http://www.w3.org/1999/xlink" xmlns:svgjs="http://svgjs.dev/svgjs" viewBox="0 0 800 800" opacity="1"><defs><symbol id="bbburst-shape-13" viewBox="0 0 159 159"><path stroke-width="22" d="M11 11h137v137H11z"></path></symbol></defs><use xlink:href="#bbburst-shape-13" width="17.12309047559606" opacity="0.9137231942899298" transform="matrix(0.7371285853878831,0.67575250543676,-0.67575250543676,0.7371285853878831,662.9512398760821,60.55241397792395)" fill="none" stroke="#ef363f"></use><use xlink:href="#bbburst-shape-13" width="42.991991267514855" opacity="0.29191698189907367" transform="matrix(0.7254949468845912,-0.6882274929446834,0.6882274929446834,0.7254949468845912,-75.48470577200763,-135.1213238050841)" fill="none" stroke="#ef363f"></use><use xlink:href="#bbburst-shape-13" width="46.138454038150115" opacity="0.020785075399271324" transform="matrix(0.8923219884194414,0.45139945611749943,-0.45139945611749943,0.8923219884194414,290.7360746976822,-316.16906843304326)" fill="none" stroke="#f47429"></use><use xlink:href="#bbburst-shape-13" width="23.85121239222098" opacity="0.7070361029761053" transform="matrix(0.9457011434807899,-0.3250374551019105,0.3250374551019105,0.9457011434807899,370.02955141860895,96.21747942889397)" fill="none" stroke="#f47429"></use><use xlink:href="#bbburst-shape-13" width="39.66281389808924" opacity="0.19059990491350476" transform="matrix(0.9743984226846085,-0.22482818744487323,0.22482818744487323,0.9743984226846085,403.9369904053523,-331.4958978123956)" fill="none" stroke="#ef363f"></use><use xlink:href="#bbburst-shape-13" width="39.70378667313344" opacity="-0.058365540704101715" transform="matrix(0.8339111814183745,0.5518986695992398,-0.5518986695992398,0.8339111814183745,953.9654842926933,-267.7780279083702)" fill="none" stroke="#f47429"></use><use xlink:href="#bbburst-shape-13" width="29.180351589992448" opacity="0.5350226248577796" transform="matrix(0.7269554241311612,0.6866846520247002,-0.6866846520247002,0.7269554241311612,461.5150314879968,46.72206082152405)" fill="none" stroke="#ef363f"></use><use xlink:href="#bbburst-shape-13" width="31.747167367262612" opacity="0.5261413629226631" transform="matrix(0.9585459861711357,-0.2849378746239341,0.2849378746239341,0.9585459861711357,167.56589641253518,207.68048278616453)" fill="none" stroke="#ef363f"></use><use xlink:href="#bbburst-shape-13" width="21.573917474031923" opacity="0.6765950155704953" transform="matrix(0.7548155722677758,-0.655937079194392,0.655937079194392,0.7548155722677758,265.9135332761992,54.490212290836325)" fill="none" stroke="#ef363f"></use><use xlink:href="#bbburst-shape-13" width="31.13825068008338" opacity="0.12493126583862924" transform="matrix(0.9933307219981347,-0.11529994247468014,0.11529994247468014,0.9933307219981347,695.8766649509312,-160.71698034617427)" fill="none" stroke="#ef363f"></use><use xlink:href="#bbburst-shape-13" width="33.985855374812964" opacity="0.16270503344690168" transform="matrix(0.7639420287261537,-0.6452848803015367,0.6452848803015367,0.7639420287261537,-232.64466886952852,-0.665687260106381)" fill="none" stroke="#ef363f"></use><use xlink:href="#bbburst-shape-13" width="22.053711085688295" opacity="0.6575945257176516" transform="matrix(0.9736508393790084,0.22804394966004315,-0.22804394966004315,0.9736508393790084,539.5592373007931,150.3317703339818)" fill="none" stroke="#016fd0"></use><use xlink:href="#bbburst-shape-13" width="37.324445563764485" opacity="0.18272976483835424" transform="matrix(0.8548636772218067,0.51885267019339,-0.51885267019339,0.8548636772218067,338.68558196762297,315.3858451773854)" fill="none" stroke="#ef363f"></use><use xlink:href="#bbburst-shape-13" width="39.026727536590954" opacity="0.22098017107042878" transform="matrix(0.9606887929043344,-0.27762752599123314,0.27762752599123314,0.9606887929043344,533.0629556487091,-210.7978533692362)" fill="none" stroke="#f47429"></use><use xlink:href="#bbburst-shape-13" width="37.130310377875865" opacity="-0.05110933866317602" transform="matrix(0.8440537075757489,-0.5362586490935435,0.5362586490935435,0.8440537075757489,-192.24149564964642,-232.02569651771023)" fill="none" stroke="#ef363f"></use><use xlink:href="#bbburst-shape-13" width="28.685600087659523" opacity="0.6779404857199769" transform="matrix(0.92347248119301,0.3836646667067816,-0.3836646667067816,0.92347248119301,412.25167637591653,-42.91905177067537)" fill="none" stroke="#016fd0"></use><use xlink:href="#bbburst-shape-13" width="38.476729384784846" opacity="0.35847956643604817" transform="matrix(0.9853313576566094,-0.17065203080708646,0.17065203080708646,0.9853313576566094,45.87424139746996,-100.84156205306573)" fill="none" stroke="#016fd0"></use><use xlink:href="#bbburst-shape-13" width="21.244027059059583" opacity="0.8012720961153901" transform="matrix(0.7816208294746662,-0.6237538608548526,0.6237538608548526,0.7816208294746662,112.76102619528308,178.42163346579656)" fill="none" stroke="#f47429"></use><use xlink:href="#bbburst-shape-13" width="24.089160297388705" opacity="0.8139708529184042" transform="matrix(0.9647714967721069,-0.2630892605487887,0.2630892605487887,0.9647714967721069,337.7724571517486,80.6922049538444)" fill="none" stroke="#f47429"></use><use xlink:href="#bbburst-shape-13" width="34.416726672333624" opacity="0.25368758728058893" transform="matrix(0.9465746373500219,0.3224848150311491,-0.3224848150311491,0.9465746373500219,594.4051768226752,341.5721073438487)" fill="none" stroke="#ef363f"></use><use xlink:href="#bbburst-shape-13" width="43.095543323296276" opacity="0.20673217152926104" transform="matrix(0.8069340091900024,0.590641604369815,-0.590641604369815,0.8069340091900024,840.9882162977749,343.9471043076331)" fill="none" stroke="#f47429"></use><use xlink:href="#bbburst-shape-13" width="45.029516180885544" opacity="0.17066399574900315" transform="matrix(0.9573379865203095,-0.28897055138065464,0.28897055138065464,0.9573379865203095,130.41489180804098,-325.33893746775965)" fill="none" stroke="#f47429"></use><use xlink:href="#bbburst-shape-13" width="20.35745282864685" opacity="0.9031310149987702" transform="matrix(0.9685146414652911,-0.24895660117249085,0.24895660117249085,0.9685146414652911,300.2534655323734,57.627600491296676)" fill="none" stroke="#f47429"></use><use xlink:href="#bbburst-shape-13" width="24.18586407643943" opacity="0.7554620566526713" transform="matrix(0.7305764223681173,-0.682830938871257,0.682830938871257,0.7305764223681173,130.6471325298246,225.34355234125115)" fill="none" stroke="#016fd0"></use><use xlink:href="#bbburst-shape-13" width="25.13919683570992" opacity="0.6722422830998314" transform="matrix(0.9758175509540395,-0.21858661269634178,0.21858661269634178,0.9758175509540395,406.84699559443936,-89.56606406991477)" fill="none" stroke="#f47429"></use><use xlink:href="#bbburst-shape-13" width="43.23997515454795" opacity="0.34330799082852226" transform="matrix(0.7539776530405854,-0.6569000675258075,0.6569000675258075,0.7539776530405854,388.37040279232997,238.33868870275683)" fill="none" stroke="#016fd0"></use><use xlink:href="#bbburst-shape-13" width="48.106202499437764" opacity="0.4571877404678083" transform="matrix(0.941435964126764,-0.33719182292681776,0.33719182292681776,0.941435964126764,431.39607416391124,-123.30544974190465)" fill="none" stroke="#ef363f"></use><use xlink:href="#bbburst-shape-13" width="26.680297858116177" opacity="0.6872000745932594" transform="matrix(0.9006697364798025,0.43450434496032725,-0.43450434496032725,0.9006697364798025,438.2074714689685,101.3267776674627)" fill="none" stroke="#ef363f"></use><use xlink:href="#bbburst-shape-13" width="13.50698824331521" opacity="0.9516943943267386" transform="matrix(0.9996564290752475,-0.026211139016163162,0.026211139016163162,0.9996564290752475,362.540327146546,-7.654757820458883)" fill="none" stroke="#016fd0"></use><use xlink:href="#bbburst-shape-13" width="26.4783156288459" opacity="0.784800584584333" transform="matrix(0.9087595395780306,0.4173201399716121,-0.4173201399716121,0.9087595395780306,651.2776178978744,40.388373956240116)" fill="none" stroke="#ef363f"></use><use xlink:href="#bbburst-shape-13" width="27.204267877784346" opacity="0.8298727912516863" transform="matrix(0.7151611306922642,-0.6989596248331961,0.6989596248331961,0.7151611306922642,38.00477956019034,99.39919517574714)" fill="none" stroke="#016fd0"></use><use xlink:href="#bbburst-shape-13" width="38.485084202612796" opacity="0.06995679797301702" transform="matrix(0.9816585412486546,-0.19064760264310554,0.19064760264310554,0.9816585412486546,540.2105553583104,-335.06504344358353)" fill="none" stroke="#016fd0"></use><use xlink:href="#bbburst-shape-13" width="20.971692201309782" opacity="0.8314511875058614" transform="matrix(0.884518315309072,-0.4665054660803034,0.4665054660803034,0.884518315309072,233.10857027090591,-19.005507294812503)" fill="none" stroke="#016fd0"></use><use xlink:href="#bbburst-shape-13" width="21.476752077493355" opacity="0.8104542146802753" transform="matrix(0.8272097875714963,0.5618931992344453,-0.5618931992344453,0.8272097875714963,689.4059451346341,19.856709484262296)" fill="none" stroke="#016fd0"></use><use xlink:href="#bbburst-shape-13" width="50.346027803374106" opacity="0.188793672076633" transform="matrix(0.7928933372946587,0.6093604480713681,-0.6093604480713681,0.7928933372946587,327.06322573452303,-145.12946109481337)" fill="none" stroke="#ef363f"></use><use xlink:href="#bbburst-shape-13" width="34.239890164522514" opacity="0.331834283194693" transform="matrix(0.9061288114392642,0.42300186415625446,-0.42300186415625446,0.9061288114392642,836.4615427754455,-71.89038984167115)" fill="none" stroke="#ef363f"></use><use xlink:href="#bbburst-shape-13" width="53.857822958400334" opacity="-0.06412424889936807" transform="matrix(0.8396100755303693,0.5431895811481362,-0.5431895811481362,0.8396100755303693,926.8122412316004,394.4659977842174)" fill="none" stroke="#ef363f"></use><use xlink:href="#bbburst-shape-13" width="37.119597521672056" opacity="0.4651162155981847" transform="matrix(0.7333219934951304,0.6798814998632688,-0.6798814998632688,0.7333219934951304,476.65602127114664,-63.82532679314457)" fill="none" stroke="#016fd0"></use><use xlink:href="#bbburst-shape-13" width="41.833965756569654" opacity="0.10865315490528948" transform="matrix(0.9502570943491027,0.31146661882006016,-0.31146661882006016,0.9502570943491027,322.2825953948708,370.60243541037823)" fill="none" stroke="#016fd0"></use><use xlink:href="#bbburst-shape-13" width="48.46451988167161" opacity="0.10100508359154492" transform="matrix(0.9528461298822194,-0.30345387255475353,0.30345387255475353,0.9528461298822194,588.3890956145444,256.1342633156962)" fill="none" stroke="#ef363f"></use><use xlink:href="#bbburst-shape-13" width="36.66313346837531" opacity="0.20198234222989875" transform="matrix(0.8086944720063259,0.5882289103286319,-0.5882289103286319,0.8086944720063259,588.3537746158773,423.40827040289474)" fill="none" stroke="#ef363f"></use><use xlink:href="#bbburst-shape-13" width="37.70941707803739" opacity="0.5226975606582644" transform="matrix(0.9223518329419356,0.3863510013817122,-0.3863510013817122,0.9223518329419356,325.7657785702311,61.85217774656229)" fill="none" stroke="#ef363f"></use><use xlink:href="#bbburst-shape-13" width="36.73714166001449" opacity="0.417151051411205" transform="matrix(0.9971469812726215,0.07548442050448682,-0.07548442050448682,0.9971469812726215,391.1518196402922,261.2165251011552)" fill="none" stroke="#ef363f"></use><use xlink:href="#bbburst-shape-13" width="35.224005544315226" opacity="0.6356303232192968" transform="matrix(0.9662573048123481,-0.257578766393461,0.257578766393461,0.9662573048123481,180.1580469189986,-112.06785796312897)" fill="none" stroke="#016fd0"></use><use xlink:href="#bbburst-shape-13" width="29.920969566106326" opacity="0.6040477076119095" transform="matrix(0.8090825644814089,0.5876949921959407,-0.5876949921959407,0.8090825644814089,607.8405074346955,245.10947853173434)" fill="none" stroke="#ef363f"></use><use xlink:href="#bbburst-shape-13" width="34.254714544855474" opacity="0.4137121017752824" transform="matrix(0.832193245381743,0.5544857097716785,-0.5544857097716785,0.832193245381743,870.9998245699976,71.60764955400765)" fill="none" stroke="#ef363f"></use><use xlink:href="#bbburst-shape-13" width="29.415664624983712" opacity="0.47299037395843724" transform="matrix(0.7550687147411098,0.6556456634640456,-0.6556456634640456,0.7550687147411098,730.0086086227263,311.98970493637427)" fill="none" stroke="#016fd0"></use><use xlink:href="#bbburst-shape-13" width="29.443583424571266" opacity="0.5791908553444172" transform="matrix(0.96599297214443,-0.2585683232098826,0.2585683232098826,0.96599297214443,410.92715095303674,156.43124920816638)" fill="none" stroke="#016fd0"></use><use xlink:href="#bbburst-shape-13" width="39.74207366296491" opacity="0.32946527297528394" transform="matrix(0.9984560333908455,0.05554772169422251,-0.05554772169422251,0.9984560333908455,127.92392972397123,124.90109187938572)" fill="none" stroke="#ef363f"></use><use xlink:href="#bbburst-shape-13" width="54.934199998577114" opacity="-0.0654402114735777" transform="matrix(0.9863217978796749,-0.16483115915204216,0.16483115915204216,0.9863217978796749,-27.487500467485646,353.5166194115686)" fill="none" stroke="#ef363f"></use><use xlink:href="#bbburst-shape-13" width="37.093327705357424" opacity="0.35840265686520634" transform="matrix(0.8706618569297655,-0.4918820294416259,0.4918820294416259,0.8706618569297655,328.0835989793527,-191.09829204425384)" fill="none" stroke="#ef363f"></use><use xlink:href="#bbburst-shape-13" width="28.59003611286365" opacity="0.565186073814139" transform="matrix(0.8989877491853855,-0.43797377411734867,0.43797377411734867,0.8989877491853855,310.81804709115767,-122.19002463923684)" fill="none" stroke="#f47429"></use><use xlink:href="#bbburst-shape-13" width="36.34886591911824" opacity="0.16348021986153993" transform="matrix(0.9999994398117368,-0.0010584782532627518,0.0010584782532627518,0.9999994398117368,738.7466713678224,118.37227773031435)" fill="none" stroke="#f47429"></use><use xlink:href="#bbburst-shape-13" width="33.226677521415176" opacity="0.540652777041046" transform="matrix(0.9741357023030286,0.2259637880249516,-0.2259637880249516,0.9741357023030286,301.649679502014,120.40391610870608)" fill="none" stroke="#f47429"></use><use xlink:href="#bbburst-shape-13" width="14.617453662248387" opacity="0.9031139599257505" transform="matrix(0.9795668697262235,0.20111874038678704,-0.20111874038678704,0.9795668697262235,440.25078338142555,35.15301476022864)" fill="none" stroke="#f47429"></use><use xlink:href="#bbburst-shape-13" width="35.37609676480677" opacity="0.101497755950968" transform="matrix(0.8277027563026923,0.561166773079916,-0.561166773079916,0.8277027563026923,791.7513160690668,420.0785331103011)" fill="none" stroke="#016fd0"></use><use xlink:href="#bbburst-shape-13" width="22.377141085680424" opacity="0.6853716950358391" transform="matrix(0.7528502500103118,0.658191842139821,-0.658191842139821,0.7528502500103118,578.8161818476907,210.9277090952002)" fill="none" stroke="#016fd0"></use><use xlink:href="#bbburst-shape-13" width="24.69560849448927" opacity="0.7132056259200643" transform="matrix(0.9455501887477432,0.3254763287231609,-0.3254763287231609,0.9455501887477432,550.996850978768,-107.14200990310388)" fill="none" stroke="#f47429"></use><use xlink:href="#bbburst-shape-13" width="32.35796123703341" opacity="0.6998917925737963" transform="matrix(0.9363151188343606,0.3511609292649131,-0.3511609292649131,0.9363151188343606,390.28881876684096,22.218061612393)" fill="none" stroke="#ef363f"></use><use xlink:href="#bbburst-shape-13" width="25.59854112091412" opacity="0.37034647099862106" transform="matrix(0.9214342218712634,-0.38853439328391415,0.38853439328391415,0.9214342218712634,216.5490940975333,-246.47884378663161)" fill="none" stroke="#ef363f"></use><use xlink:href="#bbburst-shape-13" width="32.82626606105976" opacity="0.6252966288589066" transform="matrix(0.8767191440837979,-0.48100264281703564,0.48100264281703564,0.8767191440837979,361.1359471753972,72.44337818156407)" fill="none" stroke="#016fd0"></use><use xlink:href="#bbburst-shape-13" width="38.65186632606545" opacity="0.09178039950788153" transform="matrix(0.8176606841761508,-0.5757004477613241,0.5757004477613241,0.8176606841761508,-197.48810100415204,292.74482612120323)" fill="none" stroke="#f47429"></use><use xlink:href="#bbburst-shape-13" width="44.18103001397051" opacity="0.386547659741585" transform="matrix(0.9811567043145962,-0.19321366819798247,0.19321366819798247,0.9811567043145962,105.02813456416838,206.18863092328246)" fill="none" stroke="#ef363f"></use><use xlink:href="#bbburst-shape-13" width="45.14051747241315" opacity="0.18512690865463977" transform="matrix(0.9683321541307436,-0.249665454711928,0.249665454711928,0.9683321541307436,-82.42038349887261,84.33336357029509)" fill="none" stroke="#f47429"></use><use xlink:href="#bbburst-shape-13" width="28.285405971397" opacity="0.5267395938631749" transform="matrix(0.9995261466791872,0.030781197258328816,-0.030781197258328816,0.9995261466791872,602.2009482456901,-61.31163390693348)" fill="none" stroke="#ef363f"></use><use xlink:href="#bbburst-shape-13" width="43.87074127580549" opacity="0.3222300599793345" transform="matrix(0.9961275013014077,-0.08792042510710445,0.08792042510710445,0.9961275013014077,219.77648337365042,282.48184993280114)" fill="none" stroke="#f47429"></use><use xlink:href="#bbburst-shape-13" width="24.40154375585967" opacity="0.79780255177369" transform="matrix(0.9386263966234423,-0.3449354831873525,0.3449354831873525,0.9386263966234423,208.21500841884523,-51.769714433810634)" fill="none" stroke="#ef363f"></use><use xlink:href="#bbburst-shape-13" width="27.0762593631192" opacity="0.5062069512680065" transform="matrix(0.8807905504575754,-0.4735060783396992,0.4735060783396992,0.8807905504575754,234.23356841949186,-165.24884495260542)" fill="none" stroke="#016fd0"></use><use xlink:href="#bbburst-shape-13" width="37.79270932688992" opacity="0.19886890606049457" transform="matrix(0.836531126465354,0.5479194050721382,-0.5479194050721382,0.836531126465354,599.112632685405,-305.4500943852166)" fill="none" stroke="#016fd0"></use><use xlink:href="#bbburst-shape-13" width="36.91292002800642" opacity="0.336254872007987" transform="matrix(0.982372246352111,0.18693520159966512,-0.18693520159966512,0.982372246352111,157.9998161488498,-1.41659439908085)" fill="none" stroke="#016fd0"></use><use xlink:href="#bbburst-shape-13" width="22.797949003304822" opacity="0.8110396588802669" transform="matrix(0.8886006355634816,0.45868170933249197,-0.45868170933249197,0.8886006355634816,499.6068430520216,81.67936393512292)" fill="none" stroke="#016fd0"></use><use xlink:href="#bbburst-shape-13" width="31.315120599144894" opacity="0.3969246639662758" transform="matrix(0.7859753801859736,-0.6182577955363882,0.6182577955363882,0.7859753801859736,325.172463548761,294.0484526709658)" fill="none" stroke="#f47429"></use><use xlink:href="#bbburst-shape-13" width="24.929638190236073" opacity="0.5288164365490169" transform="matrix(0.9535809225730896,0.30113688599149613,-0.30113688599149613,0.9535809225730896,701.7345884020259,102.24805316991137)" fill="none" stroke="#ef363f"></use><use xlink:href="#bbburst-shape-13" width="30.29134918756639" opacity="0.6501579415187091" transform="matrix(0.9984300343272637,0.0560130926950023,-0.0560130926950023,0.9984300343272637,379.39436187804125,-155.15929282075416)" fill="none" stroke="#ef363f"></use><use xlink:href="#bbburst-shape-13" width="31.06021830925076" opacity="0.21019550800403075" transform="matrix(0.9964748906970401,-0.08389155029156402,0.08389155029156402,0.9964748906970401,706.2267579703164,-7.724448714076573)" fill="none" stroke="#f47429"></use><use xlink:href="#bbburst-shape-13" width="17.232372249803422" opacity="0.914341604534577" transform="matrix(0.7206931108541086,0.6932542390547839,-0.6932542390547839,0.7206931108541086,709.6285351389128,106.61877682222854)" fill="none" stroke="#f47429"></use><use xlink:href="#bbburst-shape-13" width="44.02966533631143" opacity="0.470201404080298" transform="matrix(0.8737497262740841,-0.48637579692657734,0.48637579692657734,0.8737497262740841,98.70363685569296,-160.56013041179514)" fill="none" stroke="#f47429"></use></svg>